<svg width="46" height="46" viewBox="0 0 46 46" fill="none" xmlns="http://www.w3.org/2000/svg">
<path d="M32.3036 14.6964C31.766 14.1586 31.1278 13.732 30.4253 13.4409C29.7228 13.1498 28.9699 13 28.2095 13C27.4491 13 26.6961 13.1498 25.9936 13.4409C25.2912 13.732 24.6529 14.1586 24.1153 14.6964L22.9997 15.812L21.8841 14.6964C20.7983 13.6106 19.3256 13.0006 17.79 13.0006C16.2544 13.0006 14.7817 13.6106 13.6958 14.6964C12.61 15.7822 12 17.2549 12 18.7905C12 20.3261 12.61 21.7988 13.6958 22.8847L14.8115 24.0003L22.9997 32.1885L31.188 24.0003L32.3036 22.8847C32.8414 22.3471 33.268 21.7088 33.5591 21.0064C33.8502 20.3039 34 19.5509 34 18.7905C34 18.0301 33.8502 17.2772 33.5591 16.5747C33.268 15.8722 32.8414 15.234 32.3036 14.6964Z" stroke="white" stroke-linecap="round" stroke-linejoin="round"/>
<rect x="0.5" y="0.5" width="45" height="45" rx="7.5" stroke="white"/>
</svg>
