<svg width="37" height="37" viewBox="0 0 37 37" fill="none" xmlns="http://www.w3.org/2000/svg">
<rect width="37" height="37" rx="18.5" fill="#D5E7EE"/>
<path d="M20.7686 12.6315C21.6571 12.8045 22.4736 13.2382 23.1136 13.877C23.7537 14.5159 24.1882 15.3308 24.3616 16.2176M20.7686 9C22.6145 9.20467 24.3357 10.0297 25.6498 11.3396C26.9639 12.6495 27.7926 14.3664 28 16.2085M27.0904 23.4533V26.1769C27.0914 26.4297 27.0395 26.68 26.938 26.9117C26.8366 27.1433 26.6877 27.3513 26.501 27.5222C26.3144 27.6932 26.094 27.8233 25.854 27.9043C25.614 27.9853 25.3597 28.0154 25.1074 27.9926C22.3084 27.6891 19.6198 26.7345 17.2575 25.2055C15.0598 23.8116 13.1964 21.9518 11.7999 19.7583C10.2626 17.3898 9.30596 14.6932 9.00738 11.887C8.98465 11.636 9.01455 11.3829 9.09516 11.144C9.17578 10.9052 9.30534 10.6856 9.47562 10.4995C9.64589 10.3133 9.85314 10.1645 10.0842 10.0627C10.3152 9.96083 10.5649 9.90811 10.8175 9.90787H13.5463C13.9878 9.90353 14.4157 10.0596 14.7504 10.3469C15.0851 10.6342 15.3038 11.0331 15.3655 11.4694C15.4807 12.341 15.6943 13.1968 16.0023 14.0205C16.1247 14.3455 16.1511 14.6986 16.0786 15.0381C16.006 15.3776 15.8375 15.6893 15.5929 15.9361L14.4377 17.0891C15.7326 19.362 17.6181 21.2439 19.8954 22.5363L21.0506 21.3833C21.2979 21.1392 21.6101 20.971 21.9503 20.8986C22.2905 20.8262 22.6443 20.8527 22.9699 20.9748C23.7951 21.2822 24.6526 21.4954 25.5259 21.6103C25.9677 21.6725 26.3713 21.8947 26.6597 22.2345C26.9482 22.5743 27.1015 23.008 27.0904 23.4533Z" stroke="#141414" stroke-width="0.8" stroke-linecap="round" stroke-linejoin="round"/>
</svg>
